<?xml version="1.0" encoding="UTF-8" standalone="no"?>
<!DOCTYPE svg PUBLIC "-//W3C//DTD SVG 1.1//EN"
 "http://www.w3.org/Graphics/SVG/1.1/DTD/svg11.dtd">
<!-- Generated by graphviz version 2.38.0 (20140413.2041)
 -->
<!-- Title: snakemake_dag Pages: 1 -->
<svg width="542pt" height="1124pt"
 viewBox="0.00 0.00 542.00 1124.00" xmlns="http://www.w3.org/2000/svg" xmlns:xlink="http://www.w3.org/1999/xlink">
<g id="graph0" class="graph" transform="scale(1 1) rotate(0) translate(4 1120)">
<title>snakemake_dag</title>
<polygon fill="white" stroke="none" points="-4,4 -4,-1120 538,-1120 538,4 -4,4"/>
<!-- 0 -->
<g id="node1" class="node"><title>0</title>
<path fill="none" stroke="#56d8d8" stroke-width="2" d="M289,-108C289,-108 233,-108 233,-108 227,-108 221,-102 221,-96 221,-96 221,-84 221,-84 221,-78 227,-72 233,-72 233,-72 289,-72 289,-72 295,-72 301,-78 301,-84 301,-84 301,-96 301,-96 301,-102 295,-108 289,-108"/>
<text text-anchor="middle" x="261" y="-87" font-family="sans" font-size="10.00">cuffcompare</text>
</g>
<!-- 21 -->
<g id="node22" class="node"><title>21</title>
<path fill="none" stroke="#88d856" stroke-width="2" d="M320,-36C320,-36 290,-36 290,-36 284,-36 278,-30 278,-24 278,-24 278,-12 278,-12 278,-6 284,-0 290,-0 290,-0 320,-0 320,-0 326,-0 332,-6 332,-12 332,-12 332,-24 332,-24 332,-30 326,-36 320,-36"/>
<text text-anchor="middle" x="305" y="-15" font-family="sans" font-size="10.00">end</text>
</g>
<!-- 0&#45;&gt;21 -->
<g id="edge27" class="edge"><title>0&#45;&gt;21</title>
<path fill="none" stroke="grey" stroke-width="2" d="M271.876,-71.6966C276.992,-63.5589 283.195,-53.689 288.845,-44.7013"/>
<polygon fill="grey" stroke="grey" stroke-width="2" points="291.89,-46.4333 294.249,-36.1043 285.964,-42.7081 291.89,-46.4333"/>
</g>
<!-- 1 -->
<g id="node2" class="node"><title>1</title>
<path fill="none" stroke="#56d8a2" stroke-width="2" d="M247,-468C247,-468 117,-468 117,-468 111,-468 105,-462 105,-456 105,-456 105,-444 105,-444 105,-438 111,-432 117,-432 117,-432 247,-432 247,-432 253,-432 259,-438 259,-444 259,-444 259,-456 259,-456 259,-462 253,-468 247,-468"/>
<text text-anchor="middle" x="182" y="-447" font-family="sans" font-size="10.00">transdecoder_noiseremove</text>
</g>
<!-- 10 -->
<g id="node11" class="node"><title>10</title>
<path fill="none" stroke="#56d8c1" stroke-width="2" d="M315.5,-396C315.5,-396 276.5,-396 276.5,-396 270.5,-396 264.5,-390 264.5,-384 264.5,-384 264.5,-372 264.5,-372 264.5,-366 270.5,-360 276.5,-360 276.5,-360 315.5,-360 315.5,-360 321.5,-360 327.5,-366 327.5,-372 327.5,-372 327.5,-384 327.5,-384 327.5,-390 321.5,-396 315.5,-396"/>
<text text-anchor="middle" x="296" y="-375" font-family="sans" font-size="10.00">integrate</text>
</g>
<!-- 1&#45;&gt;10 -->
<g id="edge13" class="edge"><title>1&#45;&gt;10</title>
<path fill="none" stroke="grey" stroke-width="2" d="M209.888,-431.876C224.793,-422.724 243.329,-411.342 259.382,-401.485"/>
<polygon fill="grey" stroke="grey" stroke-width="2" points="261.315,-404.405 268.005,-396.19 257.652,-398.44 261.315,-404.405"/>
</g>
<!-- 2 -->
<g id="node3" class="node"><title>2</title>
<path fill="none" stroke="#70d856" stroke-width="2" stroke-dasharray="5,2" d="M108,-1044C108,-1044 34,-1044 34,-1044 28,-1044 22,-1038 22,-1032 22,-1032 22,-1020 22,-1020 22,-1014 28,-1008 34,-1008 34,-1008 108,-1008 108,-1008 114,-1008 120,-1014 120,-1020 120,-1020 120,-1032 120,-1032 120,-1038 114,-1044 108,-1044"/>
<text text-anchor="middle" x="71" y="-1023" font-family="sans" font-size="10.00">sambamba_sort</text>
</g>
<!-- 11 -->
<g id="node12" class="node"><title>11</title>
<path fill="none" stroke="#d88d56" stroke-width="2" stroke-dasharray="5,2" d="M309.5,-972C309.5,-972 222.5,-972 222.5,-972 216.5,-972 210.5,-966 210.5,-960 210.5,-960 210.5,-948 210.5,-948 210.5,-942 216.5,-936 222.5,-936 222.5,-936 309.5,-936 309.5,-936 315.5,-936 321.5,-942 321.5,-948 321.5,-948 321.5,-960 321.5,-960 321.5,-966 315.5,-972 309.5,-972"/>
<text text-anchor="middle" x="266" y="-951" font-family="sans" font-size="10.00">sambamba_merge</text>
</g>
<!-- 2&#45;&gt;11 -->
<g id="edge14" class="edge"><title>2&#45;&gt;11</title>
<path fill="none" stroke="grey" stroke-width="2" d="M118.702,-1007.88C145.952,-998.094 180.297,-985.765 208.966,-975.474"/>
<polygon fill="grey" stroke="grey" stroke-width="2" points="210.223,-978.741 218.453,-972.068 207.858,-972.153 210.223,-978.741"/>
</g>
<!-- 3 -->
<g id="node4" class="node"><title>3</title>
<path fill="none" stroke="#70d856" stroke-width="2" stroke-dasharray="5,2" d="M240,-1044C240,-1044 166,-1044 166,-1044 160,-1044 154,-1038 154,-1032 154,-1032 154,-1020 154,-1020 154,-1014 160,-1008 166,-1008 166,-1008 240,-1008 240,-1008 246,-1008 252,-1014 252,-1020 252,-1020 252,-1032 252,-1032 252,-1038 246,-1044 240,-1044"/>
<text text-anchor="middle" x="203" y="-1023" font-family="sans" font-size="10.00">sambamba_sort</text>
</g>
<!-- 3&#45;&gt;11 -->
<g id="edge15" class="edge"><title>3&#45;&gt;11</title>
<path fill="none" stroke="grey" stroke-width="2" d="M218.573,-1007.7C226.202,-999.22 235.523,-988.864 243.876,-979.583"/>
<polygon fill="grey" stroke="grey" stroke-width="2" points="246.518,-981.879 250.606,-972.104 241.315,-977.196 246.518,-981.879"/>
</g>
<!-- 4 -->
<g id="node5" class="node"><title>4</title>
<path fill="none" stroke="#a7d856" stroke-width="2" stroke-dasharray="5,2" d="M195,-684C195,-684 165,-684 165,-684 159,-684 153,-678 153,-672 153,-672 153,-660 153,-660 153,-654 159,-648 165,-648 165,-648 195,-648 195,-648 201,-648 207,-654 207,-660 207,-660 207,-672 207,-672 207,-678 201,-684 195,-684"/>
<text text-anchor="middle" x="180" y="-663" font-family="sans" font-size="10.00">hmm</text>
</g>
<!-- 8 -->
<g id="node9" class="node"><title>8</title>
<path fill="none" stroke="#d8a456" stroke-width="2" d="M223,-612C223,-612 123,-612 123,-612 117,-612 111,-606 111,-600 111,-600 111,-588 111,-588 111,-582 117,-576 123,-576 123,-576 223,-576 223,-576 229,-576 235,-582 235,-588 235,-588 235,-600 235,-600 235,-606 229,-612 223,-612"/>
<text text-anchor="middle" x="173" y="-591" font-family="sans" font-size="10.00">transdecoder_predict</text>
</g>
<!-- 4&#45;&gt;8 -->
<g id="edge9" class="edge"><title>4&#45;&gt;8</title>
<path fill="none" stroke="grey" stroke-width="2" d="M178.27,-647.697C177.498,-639.983 176.571,-630.712 175.711,-622.112"/>
<polygon fill="grey" stroke="grey" stroke-width="2" points="179.188,-621.706 174.71,-612.104 172.223,-622.403 179.188,-621.706"/>
</g>
<!-- 5 -->
<g id="node6" class="node"><title>5</title>
<path fill="none" stroke="#5673d8" stroke-width="2" d="M311,-252C311,-252 281,-252 281,-252 275,-252 269,-246 269,-240 269,-240 269,-228 269,-228 269,-222 275,-216 281,-216 281,-216 311,-216 311,-216 317,-216 323,-222 323,-228 323,-228 323,-240 323,-240 323,-246 317,-252 311,-252"/>
<text text-anchor="middle" x="296" y="-231" font-family="sans" font-size="10.00">gt_sort</text>
</g>
<!-- 5&#45;&gt;0 -->
<g id="edge1" class="edge"><title>5&#45;&gt;0</title>
<path fill="none" stroke="grey" stroke-width="2" d="M291.778,-215.871C285.787,-191.564 274.758,-146.819 267.658,-118.013"/>
<polygon fill="grey" stroke="grey" stroke-width="2" points="271.028,-117.061 265.237,-108.189 264.232,-118.736 271.028,-117.061"/>
</g>
<!-- 7 -->
<g id="node8" class="node"><title>7</title>
<path fill="none" stroke="#56c1d8" stroke-width="2" d="M355,-180C355,-180 325,-180 325,-180 319,-180 313,-174 313,-168 313,-168 313,-156 313,-156 313,-150 319,-144 325,-144 325,-144 355,-144 355,-144 361,-144 367,-150 367,-156 367,-156 367,-168 367,-168 367,-174 361,-180 355,-180"/>
<text text-anchor="middle" x="340" y="-159" font-family="sans" font-size="10.00">gff2cds</text>
</g>
<!-- 5&#45;&gt;7 -->
<g id="edge8" class="edge"><title>5&#45;&gt;7</title>
<path fill="none" stroke="grey" stroke-width="2" d="M306.876,-215.697C311.992,-207.559 318.195,-197.689 323.845,-188.701"/>
<polygon fill="grey" stroke="grey" stroke-width="2" points="326.89,-190.433 329.249,-180.104 320.964,-186.708 326.89,-190.433"/>
</g>
<!-- 6 -->
<g id="node7" class="node"><title>6</title>
<path fill="none" stroke="#59d856" stroke-width="2" stroke-dasharray="5,2" d="M295,-828C295,-828 237,-828 237,-828 231,-828 225,-822 225,-816 225,-816 225,-804 225,-804 225,-798 231,-792 237,-792 237,-792 295,-792 295,-792 301,-792 307,-798 307,-804 307,-804 307,-816 307,-816 307,-822 301,-828 295,-828"/>
<text text-anchor="middle" x="266" y="-807" font-family="sans" font-size="10.00">stringtie2cds</text>
</g>
<!-- 6&#45;&gt;8 -->
<g id="edge10" class="edge"><title>6&#45;&gt;8</title>
<path fill="none" stroke="grey" stroke-width="2" d="M224.715,-804.69C193.76,-799.052 153.365,-786.037 133,-756 104.783,-714.381 133.656,-654.648 154.875,-620.865"/>
<polygon fill="grey" stroke="grey" stroke-width="2" points="158.083,-622.352 160.603,-612.061 152.216,-618.535 158.083,-622.352"/>
</g>
<!-- 6&#45;&gt;10 -->
<g id="edge11" class="edge"><title>6&#45;&gt;10</title>
<path fill="none" stroke="grey" stroke-width="2" d="M307.229,-795.896C327.206,-787.521 349.872,-774.66 364,-756 388.472,-723.677 384,-707.542 384,-667 384,-667 384,-667 384,-521 384,-474.013 348.757,-429.627 322.877,-403.368"/>
<polygon fill="grey" stroke="grey" stroke-width="2" points="325.112,-400.657 315.53,-396.137 320.202,-405.646 325.112,-400.657"/>
</g>
<!-- 16 -->
<g id="node17" class="node"><title>16</title>
<path fill="none" stroke="#56a2d8" stroke-width="2" d="M343.5,-756C343.5,-756 304.5,-756 304.5,-756 298.5,-756 292.5,-750 292.5,-744 292.5,-744 292.5,-732 292.5,-732 292.5,-726 298.5,-720 304.5,-720 304.5,-720 343.5,-720 343.5,-720 349.5,-720 355.5,-726 355.5,-732 355.5,-732 355.5,-744 355.5,-744 355.5,-750 349.5,-756 343.5,-756"/>
<text text-anchor="middle" x="324" y="-735" font-family="sans" font-size="10.00">augustus</text>
</g>
<!-- 6&#45;&gt;16 -->
<g id="edge22" class="edge"><title>6&#45;&gt;16</title>
<path fill="none" stroke="grey" stroke-width="2" d="M280.337,-791.697C287.291,-783.305 295.77,-773.07 303.401,-763.861"/>
<polygon fill="grey" stroke="grey" stroke-width="2" points="306.143,-766.038 309.828,-756.104 300.753,-761.571 306.143,-766.038"/>
</g>
<!-- 18 -->
<g id="node19" class="node"><title>18</title>
<path fill="none" stroke="#568ad8" stroke-width="2" stroke-dasharray="5,2" d="M262,-756C262,-756 154,-756 154,-756 148,-756 142,-750 142,-744 142,-744 142,-732 142,-732 142,-726 148,-720 154,-720 154,-720 262,-720 262,-720 268,-720 274,-726 274,-732 274,-732 274,-744 274,-744 274,-750 268,-756 262,-756"/>
<text text-anchor="middle" x="208" y="-735" font-family="sans" font-size="10.00">transdecoder_longOrfs</text>
</g>
<!-- 6&#45;&gt;18 -->
<g id="edge24" class="edge"><title>6&#45;&gt;18</title>
<path fill="none" stroke="grey" stroke-width="2" d="M251.663,-791.697C244.709,-783.305 236.23,-773.07 228.599,-763.861"/>
<polygon fill="grey" stroke="grey" stroke-width="2" points="231.247,-761.571 222.172,-756.104 225.857,-766.038 231.247,-761.571"/>
</g>
<!-- 15 -->
<g id="node16" class="node"><title>15</title>
<path fill="none" stroke="#bed856" stroke-width="2" d="M367,-108C367,-108 331,-108 331,-108 325,-108 319,-102 319,-96 319,-96 319,-84 319,-84 319,-78 325,-72 331,-72 331,-72 367,-72 367,-72 373,-72 379,-78 379,-84 379,-84 379,-96 379,-96 379,-102 373,-108 367,-108"/>
<text text-anchor="middle" x="349" y="-87" font-family="sans" font-size="10.00">cds2pep</text>
</g>
<!-- 7&#45;&gt;15 -->
<g id="edge21" class="edge"><title>7&#45;&gt;15</title>
<path fill="none" stroke="grey" stroke-width="2" d="M342.225,-143.697C343.217,-135.983 344.408,-126.712 345.514,-118.112"/>
<polygon fill="grey" stroke="grey" stroke-width="2" points="348.997,-118.469 346.801,-108.104 342.054,-117.576 348.997,-118.469"/>
</g>
<!-- 24 -->
<g id="node25" class="node"><title>24</title>
<path fill="none" stroke="#56d873" stroke-width="2" d="M231,-540C231,-540 115,-540 115,-540 109,-540 103,-534 103,-528 103,-528 103,-516 103,-516 103,-510 109,-504 115,-504 115,-504 231,-504 231,-504 237,-504 243,-510 243,-516 243,-516 243,-528 243,-528 243,-534 237,-540 231,-540"/>
<text text-anchor="middle" x="173" y="-519" font-family="sans" font-size="10.00">transdecoder_togenome</text>
</g>
<!-- 8&#45;&gt;24 -->
<g id="edge29" class="edge"><title>8&#45;&gt;24</title>
<path fill="none" stroke="grey" stroke-width="2" d="M173,-575.697C173,-567.983 173,-558.712 173,-550.112"/>
<polygon fill="grey" stroke="grey" stroke-width="2" points="176.5,-550.104 173,-540.104 169.5,-550.104 176.5,-550.104"/>
</g>
<!-- 9 -->
<g id="node10" class="node"><title>9</title>
<path fill="none" stroke="#d85656" stroke-width="2" stroke-dasharray="5,2" d="M522,-1116C522,-1116 426,-1116 426,-1116 420,-1116 414,-1110 414,-1104 414,-1104 414,-1092 414,-1092 414,-1086 420,-1080 426,-1080 426,-1080 522,-1080 522,-1080 528,-1080 534,-1086 534,-1092 534,-1092 534,-1104 534,-1104 534,-1110 528,-1116 522,-1116"/>
<text text-anchor="middle" x="474" y="-1101" font-family="sans" font-size="10.00">Hisat2</text>
<text text-anchor="middle" x="474" y="-1089" font-family="sans" font-size="10.00">SRRID: SRR1617535</text>
</g>
<!-- 17 -->
<g id="node18" class="node"><title>17</title>
<path fill="none" stroke="#70d856" stroke-width="2" stroke-dasharray="5,2" d="M505,-1044C505,-1044 431,-1044 431,-1044 425,-1044 419,-1038 419,-1032 419,-1032 419,-1020 419,-1020 419,-1014 425,-1008 431,-1008 431,-1008 505,-1008 505,-1008 511,-1008 517,-1014 517,-1020 517,-1020 517,-1032 517,-1032 517,-1038 511,-1044 505,-1044"/>
<text text-anchor="middle" x="468" y="-1023" font-family="sans" font-size="10.00">sambamba_sort</text>
</g>
<!-- 9&#45;&gt;17 -->
<g id="edge23" class="edge"><title>9&#45;&gt;17</title>
<path fill="none" stroke="grey" stroke-width="2" d="M472.517,-1079.7C471.856,-1071.98 471.061,-1062.71 470.324,-1054.11"/>
<polygon fill="grey" stroke="grey" stroke-width="2" points="473.807,-1053.77 469.466,-1044.1 466.833,-1054.37 473.807,-1053.77"/>
</g>
<!-- 23 -->
<g id="node24" class="node"><title>23</title>
<path fill="none" stroke="#d6d856" stroke-width="2" d="M317.5,-324C317.5,-324 274.5,-324 274.5,-324 268.5,-324 262.5,-318 262.5,-312 262.5,-312 262.5,-300 262.5,-300 262.5,-294 268.5,-288 274.5,-288 274.5,-288 317.5,-288 317.5,-288 323.5,-288 329.5,-294 329.5,-300 329.5,-300 329.5,-312 329.5,-312 329.5,-318 323.5,-324 317.5,-324"/>
<text text-anchor="middle" x="296" y="-303" font-family="sans" font-size="10.00">addgenes</text>
</g>
<!-- 10&#45;&gt;23 -->
<g id="edge28" class="edge"><title>10&#45;&gt;23</title>
<path fill="none" stroke="grey" stroke-width="2" d="M296,-359.697C296,-351.983 296,-342.712 296,-334.112"/>
<polygon fill="grey" stroke="grey" stroke-width="2" points="299.5,-334.104 296,-324.104 292.5,-334.104 299.5,-334.104"/>
</g>
<!-- 19 -->
<g id="node20" class="node"><title>19</title>
<path fill="none" stroke="#d86e56" stroke-width="2" stroke-dasharray="5,2" d="M283.5,-900C283.5,-900 248.5,-900 248.5,-900 242.5,-900 236.5,-894 236.5,-888 236.5,-888 236.5,-876 236.5,-876 236.5,-870 242.5,-864 248.5,-864 248.5,-864 283.5,-864 283.5,-864 289.5,-864 295.5,-870 295.5,-876 295.5,-876 295.5,-888 295.5,-888 295.5,-894 289.5,-900 283.5,-900"/>
<text text-anchor="middle" x="266" y="-879" font-family="sans" font-size="10.00">stringtie</text>
</g>
<!-- 11&#45;&gt;19 -->
<g id="edge25" class="edge"><title>11&#45;&gt;19</title>
<path fill="none" stroke="grey" stroke-width="2" d="M266,-935.697C266,-927.983 266,-918.712 266,-910.112"/>
<polygon fill="grey" stroke="grey" stroke-width="2" points="269.5,-910.104 266,-900.104 262.5,-910.104 269.5,-910.104"/>
</g>
<!-- 12 -->
<g id="node13" class="node"><title>12</title>
<path fill="none" stroke="#d8bc56" stroke-width="2" d="M344,-684C344,-684 248,-684 248,-684 242,-684 236,-678 236,-672 236,-672 236,-660 236,-660 236,-654 242,-648 248,-648 248,-648 344,-648 344,-648 350,-648 356,-654 356,-660 356,-660 356,-672 356,-672 356,-678 350,-684 344,-684"/>
<text text-anchor="middle" x="296" y="-663" font-family="sans" font-size="10.00">augustus_togenome</text>
</g>
<!-- 12&#45;&gt;10 -->
<g id="edge12" class="edge"><title>12&#45;&gt;10</title>
<path fill="none" stroke="grey" stroke-width="2" d="M296,-647.966C296,-600.291 296,-465.185 296,-406.63"/>
<polygon fill="grey" stroke="grey" stroke-width="2" points="299.5,-406.306 296,-396.306 292.5,-406.306 299.5,-406.306"/>
</g>
<!-- 13 -->
<g id="node14" class="node"><title>13</title>
<path fill="none" stroke="#d85656" stroke-width="2" stroke-dasharray="5,2" d="M108,-1116C108,-1116 12,-1116 12,-1116 6,-1116 7.10543e-15,-1110 7.10543e-15,-1104 7.10543e-15,-1104 7.10543e-15,-1092 7.10543e-15,-1092 7.10543e-15,-1086 6,-1080 12,-1080 12,-1080 108,-1080 108,-1080 114,-1080 120,-1086 120,-1092 120,-1092 120,-1104 120,-1104 120,-1110 114,-1116 108,-1116"/>
<text text-anchor="middle" x="60" y="-1101" font-family="sans" font-size="10.00">Hisat2</text>
<text text-anchor="middle" x="60" y="-1089" font-family="sans" font-size="10.00">SRRID: SRR1617534</text>
</g>
<!-- 13&#45;&gt;2 -->
<g id="edge3" class="edge"><title>13&#45;&gt;2</title>
<path fill="none" stroke="grey" stroke-width="2" d="M62.7191,-1079.7C63.9313,-1071.98 65.388,-1062.71 66.7395,-1054.11"/>
<polygon fill="grey" stroke="grey" stroke-width="2" points="70.2173,-1054.53 68.3122,-1044.1 63.3021,-1053.44 70.2173,-1054.53"/>
</g>
<!-- 14 -->
<g id="node15" class="node"><title>14</title>
<path fill="none" stroke="#70d856" stroke-width="2" stroke-dasharray="5,2" d="M367,-1044C367,-1044 293,-1044 293,-1044 287,-1044 281,-1038 281,-1032 281,-1032 281,-1020 281,-1020 281,-1014 287,-1008 293,-1008 293,-1008 367,-1008 367,-1008 373,-1008 379,-1014 379,-1020 379,-1020 379,-1032 379,-1032 379,-1038 373,-1044 367,-1044"/>
<text text-anchor="middle" x="330" y="-1023" font-family="sans" font-size="10.00">sambamba_sort</text>
</g>
<!-- 14&#45;&gt;11 -->
<g id="edge17" class="edge"><title>14&#45;&gt;11</title>
<path fill="none" stroke="grey" stroke-width="2" d="M314.18,-1007.7C306.43,-999.22 296.961,-988.864 288.476,-979.583"/>
<polygon fill="grey" stroke="grey" stroke-width="2" points="290.969,-977.123 281.638,-972.104 285.803,-981.846 290.969,-977.123"/>
</g>
<!-- 15&#45;&gt;21 -->
<g id="edge26" class="edge"><title>15&#45;&gt;21</title>
<path fill="none" stroke="grey" stroke-width="2" d="M338.124,-71.6966C333.008,-63.5589 326.805,-53.689 321.155,-44.7013"/>
<polygon fill="grey" stroke="grey" stroke-width="2" points="324.036,-42.7081 315.751,-36.1043 318.11,-46.4333 324.036,-42.7081"/>
</g>
<!-- 16&#45;&gt;12 -->
<g id="edge18" class="edge"><title>16&#45;&gt;12</title>
<path fill="none" stroke="grey" stroke-width="2" d="M317.079,-719.697C313.925,-711.813 310.122,-702.304 306.619,-693.546"/>
<polygon fill="grey" stroke="grey" stroke-width="2" points="309.805,-692.089 302.842,-684.104 303.306,-694.689 309.805,-692.089"/>
</g>
<!-- 17&#45;&gt;11 -->
<g id="edge16" class="edge"><title>17&#45;&gt;11</title>
<path fill="none" stroke="grey" stroke-width="2" d="M418.844,-1007.97C390.497,-998.142 354.675,-985.729 324.837,-975.389"/>
<polygon fill="grey" stroke="grey" stroke-width="2" points="325.972,-972.078 315.377,-972.111 323.68,-978.692 325.972,-972.078"/>
</g>
<!-- 18&#45;&gt;4 -->
<g id="edge5" class="edge"><title>18&#45;&gt;4</title>
<path fill="none" stroke="grey" stroke-width="2" d="M201.079,-719.697C197.925,-711.813 194.122,-702.304 190.619,-693.546"/>
<polygon fill="grey" stroke="grey" stroke-width="2" points="193.805,-692.089 186.842,-684.104 187.306,-694.689 193.805,-692.089"/>
</g>
<!-- 19&#45;&gt;6 -->
<g id="edge7" class="edge"><title>19&#45;&gt;6</title>
<path fill="none" stroke="grey" stroke-width="2" d="M266,-863.697C266,-855.983 266,-846.712 266,-838.112"/>
<polygon fill="grey" stroke="grey" stroke-width="2" points="269.5,-838.104 266,-828.104 262.5,-838.104 269.5,-838.104"/>
</g>
<!-- 19&#45;&gt;12 -->
<g id="edge19" class="edge"><title>19&#45;&gt;12</title>
<path fill="none" stroke="grey" stroke-width="2" d="M286.718,-863.736C311.2,-841.743 350.335,-801.131 364,-756 368.637,-740.687 371.022,-734.377 364,-720 358.194,-708.114 348.293,-698.119 337.816,-690.125"/>
<polygon fill="grey" stroke="grey" stroke-width="2" points="339.544,-687.059 329.358,-684.145 335.503,-692.775 339.544,-687.059"/>
</g>
<!-- 19&#45;&gt;24 -->
<g id="edge30" class="edge"><title>19&#45;&gt;24</title>
<path fill="none" stroke="grey" stroke-width="2" d="M236.312,-873.638C182.875,-858.408 76,-818.067 76,-739 76,-739 76,-739 76,-665 76,-623.791 78.498,-609.85 102,-576 110.189,-564.206 121.845,-553.966 133.352,-545.715"/>
<polygon fill="grey" stroke="grey" stroke-width="2" points="135.356,-548.586 141.653,-540.065 131.417,-542.799 135.356,-548.586"/>
</g>
<!-- 20 -->
<g id="node21" class="node"><title>20</title>
<path fill="none" stroke="#d85656" stroke-width="2" stroke-dasharray="5,2" d="M384,-1116C384,-1116 288,-1116 288,-1116 282,-1116 276,-1110 276,-1104 276,-1104 276,-1092 276,-1092 276,-1086 282,-1080 288,-1080 288,-1080 384,-1080 384,-1080 390,-1080 396,-1086 396,-1092 396,-1092 396,-1104 396,-1104 396,-1110 390,-1116 384,-1116"/>
<text text-anchor="middle" x="336" y="-1101" font-family="sans" font-size="10.00">Hisat2</text>
<text text-anchor="middle" x="336" y="-1089" font-family="sans" font-size="10.00">SRRID: SRR1617533</text>
</g>
<!-- 20&#45;&gt;14 -->
<g id="edge20" class="edge"><title>20&#45;&gt;14</title>
<path fill="none" stroke="grey" stroke-width="2" d="M334.517,-1079.7C333.856,-1071.98 333.061,-1062.71 332.324,-1054.11"/>
<polygon fill="grey" stroke="grey" stroke-width="2" points="335.807,-1053.77 331.466,-1044.1 328.833,-1054.37 335.807,-1053.77"/>
</g>
<!-- 22 -->
<g id="node23" class="node"><title>22</title>
<path fill="none" stroke="#d85656" stroke-width="2" stroke-dasharray="5,2" d="M246,-1116C246,-1116 150,-1116 150,-1116 144,-1116 138,-1110 138,-1104 138,-1104 138,-1092 138,-1092 138,-1086 144,-1080 150,-1080 150,-1080 246,-1080 246,-1080 252,-1080 258,-1086 258,-1092 258,-1092 258,-1104 258,-1104 258,-1110 252,-1116 246,-1116"/>
<text text-anchor="middle" x="198" y="-1101" font-family="sans" font-size="10.00">Hisat2</text>
<text text-anchor="middle" x="198" y="-1089" font-family="sans" font-size="10.00">SRRID: SRR1617532</text>
</g>
<!-- 22&#45;&gt;3 -->
<g id="edge4" class="edge"><title>22&#45;&gt;3</title>
<path fill="none" stroke="grey" stroke-width="2" d="M199.236,-1079.7C199.787,-1071.98 200.449,-1062.71 201.063,-1054.11"/>
<polygon fill="grey" stroke="grey" stroke-width="2" points="204.557,-1054.33 201.778,-1044.1 197.575,-1053.83 204.557,-1054.33"/>
</g>
<!-- 23&#45;&gt;5 -->
<g id="edge6" class="edge"><title>23&#45;&gt;5</title>
<path fill="none" stroke="grey" stroke-width="2" d="M296,-287.697C296,-279.983 296,-270.712 296,-262.112"/>
<polygon fill="grey" stroke="grey" stroke-width="2" points="299.5,-262.104 296,-252.104 292.5,-262.104 299.5,-262.104"/>
</g>
<!-- 24&#45;&gt;1 -->
<g id="edge2" class="edge"><title>24&#45;&gt;1</title>
<path fill="none" stroke="grey" stroke-width="2" d="M175.225,-503.697C176.217,-495.983 177.408,-486.712 178.514,-478.112"/>
<polygon fill="grey" stroke="grey" stroke-width="2" points="181.997,-478.469 179.801,-468.104 175.054,-477.576 181.997,-478.469"/>
</g>
</g>
</svg>
